<svg xmlns="http://www.w3.org/2000/svg" viewBox="0 0 169.8 21.1" width="154" height="18"><g fill="#666"><path d="M4.3.3h8.3l.6 12.4L19 .3h8.3L23 20.8h-5.2l3.3-15.6-7.3 15.6H9.1L8.5 5.2 5.2 20.8H0L4.3.3zM28.4 10.6c.7-3.3 2.2-5.9 4.4-7.8C35.1.9 37.8 0 41.2 0c3.4 0 5.8.9 7.3 2.7 1.5 1.8 1.8 4.4 1.1 7.7-.5 2.4-1.3 4.3-2.5 5.9-1.1 1.5-2.5 2.7-4.2 3.6-1.7.9-3.7 1.3-6 1.3s-4.1-.4-5.5-1.1-2.3-1.9-2.9-3.5c-.6-1.6-.6-3.6-.1-6zm6.3 0c-.4 2.1-.4 3.5.2 4.4.6.9 1.5 1.4 2.8 1.4 1.4 0 2.5-.4 3.4-1.3.9-.9 1.6-2.5 2.1-4.8.5-1.9.4-3.3-.2-4.2-.6-.9-1.5-1.3-2.9-1.3-1.3 0-2.4.5-3.4 1.4-.9.8-1.6 2.3-2 4.4zM52.2 10.6c.7-3.3 2.2-5.9 4.4-7.8C58.9.9 61.6 0 65 0c3.4 0 5.8.9 7.3 2.7 1.5 1.8 1.8 4.4 1.1 7.7-.5 2.4-1.3 4.3-2.5 5.9-1.1 1.5-2.5 2.7-4.2 3.6-1.7.9-3.7 1.3-6 1.3s-4.1-.4-5.5-1.1c-1.4-.7-2.3-1.9-2.9-3.5-.6-1.6-.6-3.6-.1-6zm6.3 0c-.4 2.1-.4 3.5.2 4.4.6.9 1.5 1.4 2.8 1.4 1.4 0 2.5-.4 3.4-1.3.9-.9 1.6-2.5 2.1-4.8.4-1.9.3-3.3-.3-4.2-.6-.9-1.5-1.3-2.9-1.3-1.3 0-2.4.5-3.4 1.4-.8.8-1.5 2.3-1.9 4.4zM75.7.3h6.6L83.8 15 91.5.3h6.4l-12 20.5H79L75.7.3zM100.1.3h6l-.3 11.4L111.4.3h6l.7 11.4L122.7.3h6l-8.8 20.4h-6.2l-.9-12.9-6.3 12.9h-6.2L100.1.3zM152.9.3h11.8c2 0 3.4.5 4.2 1.5.8 1 1.1 2.2.8 3.6-.3 1.2-.9 2.2-1.8 3.1-.6.6-1.5 1-2.5 1.4 1.4.4 2.3 1 2.9 1.8.5.9.6 1.9.4 3.2-.2 1.1-.7 2-1.4 2.9-.7.8-1.5 1.5-2.4 2-.6.3-1.4.5-2.5.7-1.5.2-2.4.3-2.9.3h-10.9L152.9.3zm4.6 8.1h2.7c1 0 1.7-.2 2.2-.5.5-.3.8-.8.9-1.5.1-.6 0-1.1-.3-1.4-.3-.3-.9-.5-1.9-.5h-2.8l-.8 3.9zm-1.7 8h3.2c1.1 0 1.9-.2 2.4-.6.5-.4.9-.9 1-1.6.1-.6 0-1.1-.4-1.5-.4-.4-1.1-.6-2.2-.6h-3.2l-.8 4.3z"></path></g><path fill="#0C80C3" d="M126.6 20.7h19.2l1-4.7h-19.2l-1 4.7z"></path><path fill="#5FB146" d="M147.4 8.2h-18.2l-1 4.7h18.2l1-4.7z"></path><path fill="#F69120" d="M129.9 5.2h19.3l1-4.7h-19.3l-1 4.7z"></path></svg>