<?xml version="1.0" encoding="utf-8"?>
<!-- Generator: Adobe Illustrator 17.0.0, SVG Export Plug-In . SVG Version: 6.00 Build 0)  -->
<!DOCTYPE svg PUBLIC "-//W3C//DTD SVG 1.1//EN" "http://www.w3.org/Graphics/SVG/1.1/DTD/svg11.dtd">
<svg version="1.1" id="Layer_1" xmlns="http://www.w3.org/2000/svg" xmlns:xlink="http://www.w3.org/1999/xlink" x="0px" y="0px"
	 width="1021.57px" height="259.761px" viewBox="0 0 1021.57 259.761" enable-background="new 0 0 1021.57 259.761"
	 xml:space="preserve">
<g>
	<polygon points="296.888,37.611 317.483,37.611 349.447,119.105 381.252,37.611 401.402,37.611 357.318,144.403 340.963,144.403 	
		"/>
	<rect x="426.71" y="37.612" width="18.623" height="106.036"/>
	<path d="M479.719,37.612h47.266c13.321,0,23.772,3.938,30.595,10.604c5.608,5.751,8.79,13.633,8.79,22.877v0.296
		c0,17.422-10.45,27.878-25.304,32.117l28.644,40.142h-21.983l-26.05-36.969h-23.327v36.969h-18.633V37.612z M525.617,90.171
		c13.326,0,21.81-6.972,21.81-17.719v-0.306c0-11.36-8.173-17.566-21.963-17.566h-27.112v35.591H525.617z"/>
	<polygon points="620.898,54.876 587.263,54.876 587.263,37.612 673.308,37.612 673.308,54.876 639.688,54.876 639.688,143.648 
		620.898,143.648 	"/>
	<path d="M697.407,98.656V37.609h18.628V97.9c0,19.69,10.149,30.294,26.815,30.294c16.513,0,26.657-9.996,26.657-29.538V37.609
		h18.633v60.138c0,31.658-17.882,47.568-45.597,47.568C714.973,145.315,697.407,129.405,697.407,98.656"/>
	<path d="M853.58,36.855h17.269l46.649,106.792h-19.685l-10.752-25.605h-50.138l-10.905,25.605h-19.097L853.58,36.855z
		 M880.237,101.534l-18.327-42.419l-18.173,42.419H880.237z"/>
	<polygon points="941.75,37.611 960.367,37.611 960.367,126.679 1016.128,126.679 1016.128,143.647 941.75,143.647 	"/>
	<rect x="318.95" y="178.369" width="7.713" height="43.847"/>
	<polygon points="360.92,178.367 368.06,178.367 391.56,208.686 391.56,178.367 399.125,178.367 399.125,222.215 392.682,222.215 
		368.495,191.017 368.495,222.215 360.92,222.215 	"/>
	<path d="M429.989,215.828l4.64-5.514c4.2,3.632,8.4,5.702,13.84,5.702c4.768,0,7.767-2.194,7.767-5.514v-0.124
		c0-3.133-1.744-4.827-9.887-6.705c-9.334-2.253-14.606-5.01-14.606-13.089v-0.123c0-7.525,6.265-12.728,14.981-12.728
		c6.379,0,11.463,1.947,15.901,5.519l-4.116,5.826c-3.958-2.95-7.896-4.511-11.913-4.511c-4.516,0-7.15,2.318-7.15,5.203v0.128
		c0,3.38,2.006,4.882,10.416,6.888c9.255,2.258,14.087,5.574,14.087,12.837v0.123c0,8.212-6.458,13.099-15.664,13.099
		C441.581,222.845,435.246,220.527,429.989,215.828"/>
	<polygon points="505.408,185.504 491.494,185.504 491.494,178.369 527.085,178.369 527.085,185.504 513.165,185.504 
		513.165,222.211 505.408,222.211 	"/>
	<path d="M557.761,178.367h19.542c5.514,0,9.838,1.621,12.654,4.383c2.317,2.382,3.637,5.638,3.637,9.457v0.133
		c0,7.194-4.323,11.523-10.46,13.272l11.834,16.602h-9.082l-10.772-15.283h-9.65v15.283h-7.703V178.367z M576.745,200.103
		c5.509,0,9.003-2.881,9.003-7.327v-0.124c0-4.699-3.365-7.268-9.072-7.268h-11.211v14.719H576.745z"/>
	<path d="M624.892,203.611v-25.244h7.703V203.3c0,8.143,4.195,12.531,11.088,12.531c6.829,0,11.038-4.136,11.038-12.219v-25.244
		h7.703v24.868c0,13.094-7.402,19.671-18.86,19.671C632.151,222.906,624.892,216.329,624.892,203.611"/>
	<polygon points="695.545,178.367 703.747,178.367 717.083,199.1 730.434,178.367 738.646,178.367 738.646,222.215 730.942,222.215 
		730.942,190.765 717.083,211.443 716.836,211.443 703.109,190.893 703.109,222.215 695.545,222.215 	"/>
	<polygon points="772.45,178.367 804.952,178.367 804.952,185.25 780.153,185.25 780.153,196.659 802.156,196.659 802.156,203.542 
		780.153,203.542 780.153,215.327 805.273,215.327 805.273,222.215 772.45,222.215 	"/>
	<polygon points="836.955,178.367 844.094,178.367 867.585,208.686 867.585,178.367 875.169,178.367 875.169,222.215 
		868.706,222.215 844.529,191.017 844.529,222.215 836.955,222.215 	"/>
	<polygon points="919.747,185.504 905.833,185.504 905.833,178.369 941.423,178.369 941.423,185.504 927.514,185.504 
		927.514,222.211 919.747,222.211 	"/>
	<path d="M968.222,215.828l4.63-5.514c4.21,3.632,8.4,5.702,13.85,5.702c4.758,0,7.767-2.194,7.767-5.514v-0.124
		c0-3.133-1.744-4.827-9.897-6.705c-9.334-2.253-14.606-5.01-14.606-13.089v-0.123c0-7.525,6.275-12.728,14.981-12.728
		c6.389,0,11.463,1.947,15.911,5.519l-4.131,5.826c-3.953-2.95-7.901-4.511-11.918-4.511c-4.507,0-7.13,2.318-7.13,5.203v0.128
		c0,3.38,2.006,4.882,10.401,6.888c9.275,2.258,14.082,5.574,14.082,12.837v0.123c0,8.212-6.438,13.099-15.663,13.099
		C979.804,222.845,973.489,220.527,968.222,215.828"/>
	<path d="M1009.285,183.614v-0.035c0-3.182,2.574-5.845,5.865-5.845c3.276,0,5.83,2.629,5.83,5.816v0.03
		c0,3.187-2.584,5.85-5.875,5.85C1011.84,189.43,1009.285,186.796,1009.285,183.614 M1020.363,183.58v-0.03
		c0-2.891-2.248-5.238-5.213-5.238c-2.999,0-5.267,2.377-5.267,5.267v0.035c0,2.895,2.258,5.233,5.223,5.233
		C1018.095,188.847,1020.363,186.475,1020.363,183.58 M1012.769,180.353h2.732c0.81,0,1.458,0.237,1.863,0.642
		c0.316,0.326,0.489,0.761,0.489,1.29v0.035c0,0.988-0.578,1.606-1.418,1.843l1.65,2.312h-1.388l-1.487-2.115h-1.275v2.115h-1.166
		V180.353z M1015.452,183.338c0.761,0,1.215-0.37,1.215-0.949v-0.035c0-0.618-0.454-0.954-1.215-0.954h-1.517v1.937H1015.452z"/>
</g>
<g>
	<g id="Icon_2_">
		<g id="dark_blue_slices_2_">
			<g>
				<path fill="#003A54" d="M62.992,110.688c4.062,18.5,12.343,35.578,20.291,47.301c-8.28-14.021-15.682-31.33-18.815-51.388
					C58.28,67.037,76.52,28.73,91.275,6.134c-2.512,0.774-5.011,1.627-7.494,2.559C70.177,32.202,54.391,71.585,62.992,110.688z"/>
				<path fill="#003A54" d="M56.554,181.789C50.58,178.55,11.868,151.072,0,136.797c0.136,2.582,0.352,5.165,0.644,7.745
					C20.11,166.132,47.006,178.377,56.554,181.789z"/>
			</g>
		</g>
	</g>
	
		<linearGradient id="SVGID_1_" gradientUnits="userSpaceOnUse" x1="715.4485" y1="159.008" x2="900.7635" y2="159.008" gradientTransform="matrix(-0.5002 -0.8659 0.8659 -0.5002 330.6477 904.3644)">
		<stop  offset="0.2435" style="stop-color:#39B54A"/>
		<stop  offset="0.3946" style="stop-color:#63BC46"/>
		<stop  offset="0.6618" style="stop-color:#90C73E"/>
		<stop  offset="0.8729" style="stop-color:#A9CF38"/>
		<stop  offset="1" style="stop-color:#B2D235"/>
	</linearGradient>
	<path fill="url(#SVGID_1_)" d="M3.336,100.47c11.444,26.322,30.458,68.918,53.331,81.319
		c-10.076-4.167-36.736-16.856-55.926-37.264c1.942,17.163,7.345,34.217,16.537,50.129c0.671,1.162,1.389,2.283,2.091,3.416
		c14.764,7.178,50.542,19.18,101.802,1.059c0,0-45.492-32.131-57.875-88.529C54.695,71.492,70.556,32.141,83.9,8.684
		c-6.557,2.471-13.006,5.477-19.273,9.097C27.528,39.212,9.519,75.369,3.336,100.47z"/>
	<g>
		<path fill="#003A54" d="M179.272,81.758c-18.031-5.8-36.956-7.237-51.086-6.268c16.283-0.1,34.966,2.214,53.876,9.601
			c37.303,14.562,61.228,49.6,73.329,73.723c0.595-2.56,1.115-5.149,1.56-7.763C243.481,127.462,217.392,94.002,179.272,81.758z"/>
		<path fill="#003A54" d="M121.069,40.414c5.806-3.533,49.032-23.158,67.34-26.231c-2.3-1.182-4.64-2.295-7.017-3.341
			C152.939,16.8,128.823,33.881,121.069,40.414z"/>
	</g>
	
		<linearGradient id="SVGID_2_" gradientUnits="userSpaceOnUse" x1="176.9191" y1="-169.8139" x2="351.0633" y2="-201.1472" gradientTransform="matrix(1 0.0035 -0.0035 1 -102.4301 265.3118)">
		<stop  offset="0.2069" style="stop-color:#D3AC2A"/>
		<stop  offset="0.936" style="stop-color:#FEE725"/>
	</linearGradient>
	<path fill="url(#SVGID_2_)" d="M218.123,35.347c-28.505-3.356-74.883-8.361-97.11,5.165c8.671-6.61,33.053-23.263,60.345-29.576
		C165.549,3.977,148.092,0.064,129.716,0c-1.342-0.005-2.671,0.051-4.004,0.088c-13.633,9.146-42.009,34.025-52.145,87.44
		c0,0,50.659-23.143,105.627-5.463c38.125,12.246,64.148,45.755,77.704,69.091c1.164-6.91,1.812-13.996,1.837-21.232
		C258.885,87.08,236.703,53.322,218.123,35.347z"/>
	<g>
		<path fill="#003A54" d="M146.113,197.876c14.022-12.733,24.71-28.418,30.92-41.147c-8.037,14.162-19.364,29.199-35.199,41.902
			c-31.231,25.064-73.533,28.318-100.476,26.77c1.922,1.793,3.906,3.535,5.95,5.225C74.469,230.721,116.483,224.804,146.113,197.876
			z"/>
		<path fill="#003A54" d="M210.981,168.061c0.165,6.794-4.392,54.047-10.863,71.447c2.172-1.403,4.304-2.877,6.396-4.415
			C215.547,207.462,212.775,178.04,210.981,168.061z"/>
	</g>
	
		<linearGradient id="SVGID_3_" gradientUnits="userSpaceOnUse" x1="134.5824" y1="459.0828" x2="319.8974" y2="459.0828" gradientTransform="matrix(-0.5019 0.8649 -0.8649 -0.5019 669.1617 223.6183)">
		<stop  offset="0.3547" style="stop-color:#008FCE"/>
		<stop  offset="1" style="stop-color:#32C5F4"/>
	</linearGradient>
	<path fill="url(#SVGID_3_)" d="M166.952,254.701c17.13-23.03,44.606-60.727,43.973-86.738c1.403,10.813,3.671,40.251-4.474,67.054
		c13.918-10.229,26.018-23.406,35.241-39.3c0.674-1.161,1.288-2.341,1.922-3.514c-1.125-16.378-8.529-53.382-49.765-88.816
		c0,0-5.217,55.45-47.963,94.268c-29.634,26.931-71.658,32.767-98.645,32.873c5.408,4.456,11.226,8.553,17.485,12.185
		C101.781,264.218,142.105,261.835,166.952,254.701z"/>
</g>
</svg>
